<svg width="111" height="48" viewBox="0 0 111 48" fill="none" xmlns="http://www.w3.org/2000/svg">
<path fill-rule="evenodd" clip-rule="evenodd" d="M48.3105 15.7207C48.8197 16.0306 49.3758 16.1855 49.979 16.1855C50.5933 16.1855 51.1522 16.0306 51.6558 15.7207C52.1593 15.4108 52.5633 14.9958 52.8677 14.4756C53.1665 13.9609 53.3159 13.3937 53.3159 12.7739L53.2993 7.38672C53.2993 6.76139 53.1471 6.19417 52.8428 5.68506C52.5439 5.17041 52.1455 4.7609 51.6475 4.45654C51.1549 4.15218 50.5988 4 49.979 4C49.3813 4 48.828 4.15495 48.3188 4.46484C47.8097 4.76921 47.4058 5.17594 47.1069 5.68506C46.8026 6.18864 46.6504 6.75586 46.6504 7.38672L46.6338 12.7739C46.6338 13.3937 46.786 13.9637 47.0903 14.4839C47.4002 14.9985 47.807 15.4108 48.3105 15.7207ZM50.8755 13.7202C50.6209 13.9969 50.3221 14.1353 49.979 14.1353C49.6304 14.1353 49.3315 14.0024 49.0825 13.7368C48.8335 13.4657 48.709 13.1447 48.709 12.7739V7.38672C48.709 6.99935 48.8335 6.67839 49.0825 6.42383C49.3315 6.16927 49.6304 6.04199 49.979 6.04199C50.3442 6.04199 50.6458 6.17204 50.8838 6.43213C51.1217 6.69222 51.2407 7.01042 51.2407 7.38672L51.2573 12.7739C51.2573 13.1226 51.13 13.438 50.8755 13.7202ZM65.6011 16.1855C64.9868 16.1855 64.4334 16.0334 63.9409 15.729C63.4429 15.4246 63.0417 15.0151 62.7373 14.5005C62.4385 13.9858 62.2891 13.4103 62.2891 12.7739V7.38672C62.2891 6.76693 62.4412 6.20247 62.7456 5.69336C63.0444 5.17871 63.4456 4.76921 63.9492 4.46484C64.4528 4.15495 65.0034 4 65.6011 4C66.2264 4 66.7909 4.14941 67.2944 4.44824C67.798 4.7526 68.1964 5.15934 68.4897 5.66846C68.7886 6.17757 68.938 6.75033 68.938 7.38672V8.16699C68.938 8.21126 68.9103 8.2334 68.855 8.2334H66.9458C66.9015 8.2334 66.8794 8.21126 66.8794 8.16699V7.51953C66.8794 7.08789 66.7577 6.73096 66.5142 6.44873C66.2707 6.1665 65.9663 6.02539 65.6011 6.02539C65.2746 6.02539 64.984 6.16097 64.7295 6.43213C64.4749 6.70329 64.3477 7.02148 64.3477 7.38672V12.7739C64.3477 13.1447 64.4722 13.4657 64.7212 13.7368C64.9702 14.0024 65.2635 14.1353 65.6011 14.1353C65.9663 14.1353 66.2707 14.0052 66.5142 13.7451C66.7577 13.4795 66.8794 13.1558 66.8794 12.7739V11.9355H65.6924C65.6315 11.9355 65.6011 11.9079 65.6011 11.8525V9.95166C65.6011 9.89632 65.6315 9.86865 65.6924 9.86865H68.8716C68.9159 9.86865 68.938 9.89632 68.938 9.95166V12.7739C68.938 13.4103 68.7886 13.9858 68.4897 14.5005C68.1854 15.0151 67.7842 15.4246 67.2861 15.729C66.7881 16.0334 66.2264 16.1855 65.6011 16.1855ZM56.4536 16.0195H54.752C54.6634 16.0195 54.6191 15.9808 54.6191 15.9033L54.6025 4.32373C54.6025 4.23519 54.6468 4.19092 54.7354 4.19092H56.271L59.1431 10.8896L59.0601 4.32373C59.0601 4.23519 59.1099 4.19092 59.2095 4.19092H60.8945C60.9609 4.19092 60.9941 4.23519 60.9941 4.32373L61.0107 15.9199C61.0107 15.9863 60.9831 16.0195 60.9277 16.0195H59.4336L56.4868 9.76074L56.6113 15.8867C56.6113 15.9753 56.5588 16.0195 56.4536 16.0195ZM40.7568 16.0195H38.8311C38.7868 16.0195 38.7646 15.9919 38.7646 15.9365L38.7812 4.25732C38.7812 4.21305 38.8089 4.19092 38.8643 4.19092H40.7568C40.8122 4.19092 40.8398 4.21305 40.8398 4.25732L40.8232 8.88086H43.3716V4.25732C43.3716 4.21305 43.3937 4.19092 43.438 4.19092H45.3306C45.3859 4.19092 45.4136 4.21305 45.4136 4.25732L45.4468 15.9365C45.4468 15.9919 45.4191 16.0195 45.3638 16.0195H43.4546C43.3993 16.0195 43.3716 15.9919 43.3716 15.9365V10.9395H40.8232V15.9365C40.8232 15.9919 40.8011 16.0195 40.7568 16.0195ZM33.668 16.0195H35.5854C35.6297 16.0195 35.6519 15.9919 35.6519 15.9365L35.6353 6.24121H37.8682C37.9124 6.24121 37.9346 6.21354 37.9346 6.1582V4.25732C37.9346 4.21305 37.9041 4.19092 37.8433 4.19092H31.3853C31.341 4.19092 31.3188 4.21305 31.3188 4.25732L31.3022 6.1582C31.3022 6.21354 31.3299 6.24121 31.3853 6.24121H33.5933V15.9365C33.5933 15.9919 33.6182 16.0195 33.668 16.0195ZM21.4658 16.0195H19.54C19.4958 16.0195 19.4736 15.9919 19.4736 15.9365L19.4902 4.25732C19.4902 4.21305 19.5179 4.19092 19.5732 4.19092H21.4658C21.5212 4.19092 21.5488 4.21305 21.5488 4.25732L21.5322 8.88086H24.0806V4.25732C24.0806 4.21305 24.1027 4.19092 24.147 4.19092H26.0396C26.0949 4.19092 26.1226 4.21305 26.1226 4.25732L26.1558 15.9365C26.1558 15.9919 26.1281 16.0195 26.0728 16.0195H24.1636C24.1082 16.0195 24.0806 15.9919 24.0806 15.9365V10.9395H21.5322V15.9365C21.5322 15.9919 21.5101 16.0195 21.4658 16.0195ZM11.7373 16.0195H13.439C13.5441 16.0195 13.5967 15.9753 13.5967 15.8867L13.4722 9.76074L16.4189 16.0195H17.9131C17.9684 16.0195 17.9961 15.9863 17.9961 15.9199L17.9795 4.32373C17.9795 4.23519 17.9463 4.19092 17.8799 4.19092H16.1948C16.0952 4.19092 16.0454 4.23519 16.0454 4.32373L16.1284 10.8896L13.2563 4.19092H11.7207C11.6322 4.19092 11.5879 4.23519 11.5879 4.32373L11.6045 15.9033C11.6045 15.9808 11.6488 16.0195 11.7373 16.0195ZM10.0273 16.0195H8.10156C8.04622 16.0195 8.01855 15.9919 8.01855 15.9365L8.03516 4.25732C8.03516 4.21305 8.05729 4.19092 8.10156 4.19092H10.0107C10.055 4.19092 10.0771 4.21305 10.0771 4.25732L10.0938 15.9365C10.0938 15.9919 10.0716 16.0195 10.0273 16.0195ZM0.0830078 16.0196L3.12939 16.003C3.79899 15.9919 4.39941 15.8287 4.93066 15.5133C5.46191 15.1923 5.88802 14.7634 6.20898 14.2266C6.52441 13.6843 6.68213 13.0867 6.68213 12.4337V7.5528C6.68213 6.92748 6.52718 6.35749 6.21729 5.84284C5.91292 5.32266 5.50342 4.91039 4.98877 4.60602C4.47965 4.30166 3.90967 4.15778 3.27881 4.17438L0.0996094 4.19099C0.0553385 4.19099 0.0332031 4.21312 0.0332031 4.25739L0 15.9366C0 15.9919 0.0276693 16.0196 0.0830078 16.0196ZM2.0918 6.22468L3.27881 6.20808C3.64404 6.19701 3.95947 6.32705 4.2251 6.59821C4.49072 6.86384 4.62354 7.1765 4.62354 7.5362V12.4337C4.62354 12.8432 4.47965 13.1946 4.19189 13.4879C3.90413 13.7812 3.54997 13.9278 3.12939 13.9278H2.0752L2.0918 6.22468Z" fill="url(#paint0_linear_28_819)"/>
<path d="M104.429 43.6895C103.364 43.6895 102.383 43.416 101.484 42.8691C100.596 42.3223 99.8779 41.5947 99.3311 40.6865C98.7939 39.7686 98.5254 38.7627 98.5254 37.6689L98.5547 28.1621C98.5547 27.0488 98.8232 26.0479 99.3604 25.1592C99.8877 24.2607 100.601 23.543 101.499 23.0059C102.397 22.459 103.374 22.1855 104.429 22.1855C105.522 22.1855 106.504 22.4541 107.373 22.9912C108.252 23.5283 108.955 24.251 109.482 25.1592C110.02 26.0576 110.288 27.0586 110.288 28.1621L110.317 37.6689C110.317 38.7627 110.054 39.7637 109.526 40.6719C108.989 41.5898 108.276 42.3223 107.388 42.8691C106.499 43.416 105.513 43.6895 104.429 43.6895ZM104.429 40.0713C105.034 40.0713 105.562 39.8271 106.011 39.3389C106.46 38.8408 106.685 38.2842 106.685 37.6689L106.655 28.1621C106.655 27.498 106.445 26.9365 106.025 26.4775C105.605 26.0186 105.073 25.7891 104.429 25.7891C103.813 25.7891 103.286 26.0137 102.847 26.4629C102.407 26.9121 102.188 27.4785 102.188 28.1621V37.6689C102.188 38.3232 102.407 38.8896 102.847 39.3682C103.286 39.8369 103.813 40.0713 104.429 40.0713Z" fill="white"/>
<path d="M96.0938 43.3965H86.3965C86.3184 43.3965 86.2793 43.3477 86.2793 43.25L86.3086 22.6396C86.3086 22.5615 86.3477 22.5225 86.4258 22.5225H96.0645C96.1426 22.5225 96.1816 22.5713 96.1816 22.6689V26.0234C96.1816 26.1016 96.1426 26.1406 96.0645 26.1406H89.9121V30.8281H96.0645C96.1426 30.8281 96.1816 30.8672 96.1816 30.9453L96.2109 34.3438C96.2109 34.4219 96.1719 34.4609 96.0938 34.4609H89.9121V39.7051H96.0938C96.1719 39.7051 96.2109 39.7539 96.2109 39.8516V43.2793C96.2109 43.3574 96.1719 43.3965 96.0938 43.3965Z" fill="white"/>
<path d="M77.6514 43.3673L72.2754 43.3966C72.1777 43.3966 72.1289 43.3477 72.1289 43.2501L72.1875 22.6397C72.1875 22.5616 72.2266 22.5225 72.3047 22.5225L77.915 22.4932C79.0283 22.4639 80.0342 22.7178 80.9326 23.255C81.8408 23.7921 82.5635 24.5196 83.1006 25.4376C83.6475 26.3458 83.9209 27.3516 83.9209 28.4552V37.0684C83.9209 38.2208 83.6426 39.2755 83.0859 40.2325C82.5195 41.1798 81.7676 41.9366 80.8301 42.503C79.8926 43.0596 78.833 43.3477 77.6514 43.3673ZM77.915 26.0821L75.8203 26.1114L75.791 39.7052H77.6514C78.3936 39.7052 79.0186 39.4464 79.5264 38.9288C80.0342 38.4112 80.2881 37.7911 80.2881 37.0684V28.4259C80.2881 27.7911 80.0537 27.2393 79.585 26.7706C79.1162 26.2921 78.5596 26.0626 77.915 26.0821Z" fill="white"/>
<path d="M69.375 43.3965H65.9766C65.8789 43.3965 65.8301 43.3477 65.8301 43.25L65.8594 22.6396C65.8594 22.5615 65.8984 22.5225 65.9766 22.5225H69.3457C69.4238 22.5225 69.4629 22.5615 69.4629 22.6396L69.4922 43.25C69.4922 43.3477 69.4531 43.3965 69.375 43.3965Z" fill="white"/>
<path d="M59.8535 43.3965H56.2207C56.1328 43.3965 56.084 43.3477 56.0742 43.25L51.9287 22.6396C51.9092 22.5615 51.9482 22.5225 52.0459 22.5225H55.4443C55.5225 22.5225 55.5713 22.5615 55.5908 22.6396L58.0518 36.3799L60.4541 22.6396C60.4736 22.5615 60.5225 22.5225 60.6006 22.5225H63.9551C64.0625 22.5225 64.1016 22.5615 64.0723 22.6396L60 43.25C59.9902 43.3477 59.9414 43.3965 59.8535 43.3965Z" fill="white"/>
<path d="M39.4482 43.3965H36.0645C35.9766 43.3965 35.9326 43.3477 35.9326 43.25V26.1406H32.0361C31.9385 26.1406 31.8896 26.0918 31.8896 25.9941L31.9189 22.6396C31.9189 22.5615 31.958 22.5225 32.0361 22.5225H43.4326C43.54 22.5225 43.5938 22.5615 43.5938 22.6396V25.9941C43.5938 26.0918 43.5547 26.1406 43.4766 26.1406H39.5361L39.5654 43.25C39.5654 43.3477 39.5264 43.3965 39.4482 43.3965Z" fill="white"/>
<path d="M30.293 43.3965H26.8945C26.7969 43.3965 26.748 43.3477 26.748 43.25L26.7773 22.6396C26.7773 22.5615 26.8164 22.5225 26.8945 22.5225H30.2637C30.3418 22.5225 30.3809 22.5615 30.3809 22.6396L30.4102 43.25C30.4102 43.3477 30.3711 43.3965 30.293 43.3965Z" fill="white"/>
<path d="M18.1201 43.3673L12.7441 43.3966C12.6465 43.3966 12.5977 43.3477 12.5977 43.2501L12.6562 22.6397C12.6562 22.5616 12.6953 22.5225 12.7734 22.5225L18.3838 22.4932C19.4971 22.4639 20.5029 22.7178 21.4014 23.255C22.3096 23.7921 23.0322 24.5196 23.5693 25.4376C24.1162 26.3458 24.3896 27.3516 24.3896 28.4552V37.0684C24.3896 38.2208 24.1113 39.2755 23.5547 40.2325C22.9883 41.1798 22.2363 41.9366 21.2988 42.503C20.3613 43.0596 19.3018 43.3477 18.1201 43.3673ZM18.3838 26.0821L16.2891 26.1114L16.2598 39.7052H18.1201C18.8623 39.7052 19.4873 39.4464 19.9951 38.9288C20.5029 38.4112 20.7568 37.7911 20.7568 37.0684V28.4259C20.7568 27.7911 20.5225 27.2393 20.0537 26.7706C19.585 26.2921 19.0283 26.0626 18.3838 26.0821Z" fill="white"/>
<path d="M9.81445 43.3965H0.117188C0.0390625 43.3965 0 43.3477 0 43.25L0.0292969 22.6396C0.0292969 22.5615 0.0683594 22.5225 0.146484 22.5225H9.78516C9.86328 22.5225 9.90234 22.5713 9.90234 22.6689V26.0234C9.90234 26.1016 9.86328 26.1406 9.78516 26.1406H3.63281V30.8281H9.78516C9.86328 30.8281 9.90234 30.8672 9.90234 30.9453L9.93164 34.3438C9.93164 34.4219 9.89258 34.4609 9.81445 34.4609H3.63281V39.7051H9.81445C9.89258 39.7051 9.93164 39.7539 9.93164 39.8516V43.2793C9.93164 43.3574 9.89258 43.3965 9.81445 43.3965Z" fill="white"/>
<defs>
<linearGradient id="paint0_linear_28_819" x1="0.327642" y1="10.0195" x2="68.0225" y2="19.4192" gradientUnits="userSpaceOnUse">
<stop stop-color="#FF46F5"/>
<stop offset="1" stop-color="#46A1E3"/>
</linearGradient>
</defs>
</svg>
